Coordinates
version=1
nRows=27
nColumns=12
inDegrees=yes

Units are S.I. units (second, meters, Newtons, ...)
Angles are in degrees

endheader
time	SC_y	SC_z	SC_x	AC_y	AC_z	AC_x	GH_y	GH_z	GH_yy	EL_x	PS_y
       0.0              -45.36          3.014          40.61           31.4         0.8442         -19.61         -3.785          46.93         -62.23          40.77          35.19
    0.0381              -45.36          3.015          40.61           31.4         0.8416         -19.61         -3.762          46.93         -62.22          40.78           35.2
   0.07619              -45.36          3.016          40.61           31.4         0.8388         -19.61         -3.738          46.93         -62.21          40.79          35.21
    0.1143              -45.36          3.017           40.6          31.41         0.8359          -19.6         -3.712          46.93          -62.2           40.8          35.22
    0.1524              -45.36          3.017           40.6          31.41         0.8327          -19.6         -3.684          46.94         -62.19          40.81          35.22
    0.1905              -45.35          3.018          40.59          31.41         0.8294          -19.6         -3.655          46.94         -62.18          40.82          35.23
    0.2286              -45.35          3.019          40.59          31.42         0.8258         -19.59         -3.624          46.94         -62.17          40.83          35.24
    0.2667              -45.35           3.02          40.58          31.42         0.8219         -19.59          -3.59          46.94         -62.16          40.84          35.25
    0.3048              -45.34          3.021          40.58          31.43         0.8178         -19.58         -3.554          46.94         -62.15          40.86          35.26
    0.3429              -45.34          3.023          40.57          31.43         0.8134         -19.58         -3.516          46.94         -62.14          40.87          35.27
     0.381              -45.34          3.024          40.56          31.44         0.8087         -19.57         -3.474          46.94         -62.13          40.88          35.29
    0.4191              -45.33          3.025          40.56          31.45         0.8036         -19.56         -3.429          46.94         -62.11           40.9           35.3
    0.4571              -45.33          3.027          40.55          31.45         0.7981         -19.56         -3.381          46.95          -62.1          40.92          35.31
    0.4952              -45.32          3.028          40.54          31.46         0.7922         -19.55          -3.33          46.95         -62.08          40.94          35.33
    0.5333              -45.32           3.03          40.53          31.47         0.7858         -19.54         -3.273          46.95         -62.06          40.96          35.35
    0.5714              -45.31          3.032          40.52          31.48         0.7788         -19.53         -3.212          46.95         -62.04          40.98          35.37
    0.6095              -45.31          3.034          40.51          31.49         0.7713         -19.52         -3.146          46.95         -62.02          41.01          35.39
    0.6476               -45.3          3.036           40.5           31.5          0.763         -19.51         -3.074          46.96          -62.0          41.03          35.41
    0.6857              -45.29          3.039          40.49          31.51          0.754          -19.5         -2.995          46.96         -61.97          41.06          35.43
    0.7238              -45.29          3.041          40.47          31.52         0.7442         -19.49         -2.909          46.96         -61.94          41.09          35.46
    0.7619              -45.28          3.044          40.46          31.54         0.7334         -19.48         -2.814          46.96         -61.91          41.13          35.48
       0.8              -45.27          3.047          40.44          31.55         0.7215         -19.46          -2.71          46.97         -61.88          41.17          35.52
    0.8381              -45.26          3.051          40.42          31.57         0.7083         -19.45         -2.595          46.97         -61.84          41.21          35.55
    0.8762              -45.25          3.055           40.4          31.59         0.6938         -19.43         -2.467          46.97          -61.8          41.26          35.59
    0.9143              -45.23          3.059          40.38          31.61         0.6776         -19.41         -2.325          46.98         -61.76          41.31          35.63
    0.9524              -45.22          3.064          40.35          31.63         0.6595         -19.39         -2.167          46.98         -61.71          41.37          35.68
    0.9905               -45.2           3.07          40.32          31.66         0.6393         -19.36          -1.99          46.99         -61.65          41.43          35.73
